<svg width="136" height="135" viewBox="0 0 136 135" fill="none" xmlns="http://www.w3.org/2000/svg">
<path id="il_340x270 1 (Traced)" fill-rule="evenodd" clip-rule="evenodd" d="M22.8911 8.13706C23.7336 12.0833 27.498 20.5044 29.7466 23.4724C31.2756 25.4917 31.6728 25.7574 32.1814 25.1036C33.6555 23.2094 35.2092 21.8205 36.1155 21.5872C36.6543 21.4483 37.6333 21.2002 38.2913 21.0349C39.4626 20.7416 39.4382 20.6652 37.0775 17.2745C35.7528 15.3714 33.2022 12.5215 31.4104 10.9419C27.709 7.67968 23.2507 4.64246 22.6618 4.98247C22.4442 5.10808 22.5472 6.52783 22.8911 8.13706ZM7.66656 27.2442C6.24588 34.0498 7.14127 40.2403 10.6171 47.647C12.3765 51.3949 12.5021 51.5452 13.1599 50.6913C14.6965 48.6977 17.3584 46.0222 18.4087 45.4158C19.0218 45.0618 19.4714 44.6826 19.4083 44.5735C19.345 44.4638 18.1646 43.223 16.7851 41.8155C13.5781 38.5432 11.1757 33.5455 9.99585 27.6901C9.51944 25.3257 8.98911 23.3538 8.81732 23.3081C8.64601 23.262 8.12808 25.0333 7.66656 27.2442ZM50.6192 0.603618C57.5757 5.35445 60.2809 7.92583 63.4263 12.7768L65.5152 15.999L67.949 15.0218C69.2875 14.4838 71.4114 14.0526 72.6685 14.063L74.9537 14.0817L73.3731 12.0984C69.4853 7.22029 64.124 3.64926 57.9196 1.80626C54.1874 0.697452 49.6665 -0.0470797 50.6192 0.603618ZM35.3579 25.516C33.43 27.5773 32.1688 32.0469 32.5437 35.4865C33.2222 41.7105 39.2633 51.0382 45.0941 54.8661C53.897 60.6447 62.6742 55.4633 61.5738 45.1388C60.389 34.0283 51.0341 22.8387 42.7297 22.6006C40.1471 22.5263 36.9829 23.7778 35.3579 25.516ZM64.7692 21.0409C62.5608 24.4832 62.0111 29.9035 63.2851 35.6812C66.1887 48.8465 79.6913 57.8021 85.9974 50.7452C88.0133 48.4888 89.3605 43.9398 89.1476 40.1055C88.3701 26.0766 80.5716 15.6873 71.4911 16.5821C68.1827 16.9086 66.8566 17.7881 64.7692 21.0409ZM1.49833 60.5839C0.0593958 67.4765 1.20333 74.611 4.72555 80.7117C6.49995 83.7851 6.62561 83.8961 6.95143 82.687C7.40916 80.9884 9.34558 78.4988 10.9133 77.5937L12.1744 76.8655L10.1338 74.0699C7.6962 70.7307 4.49701 63.3776 3.66082 59.1917C3.32985 57.5332 2.89474 56.2717 2.69479 56.3871C2.49436 56.5028 1.95603 58.3916 1.49833 60.5839ZM16.7994 49.4901C15.4008 51.2787 14.6849 56.8861 15.428 60.2391C16.7327 66.1281 21.361 72.744 26.5737 76.173C29.6908 78.223 34.8835 79.3209 37.7892 78.5441C49.4308 75.4313 41.9214 53.8742 26.9814 47.5182C23.5031 46.0388 18.7841 46.9523 16.7994 49.4901ZM84.7155 12.5606C84.7917 12.6926 85.7313 13.3679 86.803 14.0619C90.4771 16.4391 93.6844 20.1834 96.3724 25.234L98.8906 29.9661L100.231 29.1916C101.855 28.2532 103.589 28.128 106.333 28.7517L108.4 29.2217L106.007 25.8562C101.253 19.1698 96.204 14.7866 91.3841 13.1615C89.2014 12.4253 84.3869 11.9914 84.7155 12.5606ZM9.74248 82.0503C7.12714 84.9022 7.35702 88.5096 10.5046 93.9955C13.0044 98.3527 16.1042 101.707 20.4082 104.709C25.9095 108.548 30.5944 109.286 34.6036 106.944C41.0246 103.193 41.4519 95.2835 35.6213 88.109C28.6488 79.5298 14.9873 76.3315 9.74248 82.0503ZM99.2182 32.8885C93.2321 38.667 94.4465 50.3972 101.846 58.2611C103.31 59.8178 105.472 61.6608 106.65 62.357C110.501 64.6344 115.721 63.3156 118.146 59.4526C122.331 52.7877 118.398 38.2659 110.985 33.009C106.662 29.9446 102.315 29.9001 99.2182 32.8885ZM53.7996 64.0107C53.3403 64.4247 51.9372 65.9525 50.6817 67.406C45.8976 72.9442 44.8613 77.8011 47.1452 83.9812C49.6874 90.8604 48.739 95.4703 42.9873 104.188C39.1181 110.053 37.3919 114.785 37.4719 119.311C37.5524 123.922 40.1251 128.507 44.0085 130.96C49.6465 134.524 57.5098 135.25 66.3797 133.027C70.0236 132.114 71.951 131.253 77.4575 128.076C84.7843 123.849 88.5875 120.735 94.899 113.795C98.2273 110.135 99.0317 109.513 103.027 107.506C106.064 105.981 109.234 104.888 113.091 104.038C124.993 101.414 131.942 96.0877 134.782 87.4122C136.428 82.3824 136.054 78.9432 133.354 74.2667C131.39 70.8639 130.862 70.2956 128.649 69.1953C127.22 68.4853 124.527 67.8983 122.339 67.8208C120.24 67.7462 116.42 67.6171 113.85 67.5342C106.604 67.3002 100.635 65.4671 94.9762 61.7386C92.3328 59.9967 88.7498 58.072 87.0145 57.4611C80.8016 55.2736 71.7297 55.3862 65.0237 57.733C62.3444 58.671 55.4402 62.5325 53.7996 64.0107Z" fill="#184066"/>
</svg>
