<svg width="127" height="143" viewBox="0 0 127 143" fill="none" xmlns="http://www.w3.org/2000/svg">
<path id="il_340x270 1 (Traced)" fill-rule="evenodd" clip-rule="evenodd" d="M96.0445 5.29341C93.0482 7.99615 87.6375 15.4668 86.1915 18.8982C85.2071 21.232 85.1756 21.7088 85.9962 21.8224C88.3736 22.1518 90.3533 22.803 91.0085 23.4712C91.3982 23.8683 92.1026 24.5921 92.5747 25.0793C93.4144 25.947 93.4684 25.8877 95.2244 22.148C96.2102 20.0492 97.403 16.4153 97.8751 14.0737C98.8495 9.23715 99.2507 3.85754 98.6618 3.51753C98.4442 3.39192 97.2662 4.19103 96.0445 5.29341ZM71.8849 1.66219C65.2808 3.83461 60.3673 7.70532 55.6908 14.4188C53.3248 17.8165 53.2574 18.0003 54.3258 18.1431C56.8206 18.4771 60.4687 19.4446 61.5189 20.0509C62.1321 20.4049 62.6852 20.6046 62.7482 20.4955C62.8116 20.3858 63.2959 18.7431 63.8251 16.8447C65.0555 12.4312 68.1824 7.85184 72.6634 3.90233C74.4729 2.30755 75.9154 0.862343 75.8691 0.690688C75.8233 0.519307 74.0304 0.956418 71.8849 1.66219ZM116.433 25.5399C115.797 33.9399 114.922 37.5684 112.294 42.7179L110.548 46.138L112.611 47.7571C113.746 48.6473 115.182 50.271 115.801 51.3648L116.928 53.3532L117.855 50.9928C120.136 45.1868 120.547 38.7583 119.041 32.4636C118.136 28.6771 116.52 24.3895 116.433 25.5399ZM87.2272 24.7795C84.4782 24.1405 79.9768 25.2831 77.1855 27.3275C72.1346 31.0271 67.0771 40.9228 66.6774 47.8863C66.0744 58.3992 74.9503 63.4097 83.3413 57.2945C92.371 50.7132 97.384 37.0168 93.438 29.7059C92.211 27.4322 89.5451 25.3177 87.2272 24.7795ZM105.808 48.0128C101.723 47.8214 96.7542 50.0555 92.3876 54.0477C82.4379 63.145 81.4334 79.3164 90.6979 81.2492C93.6599 81.8668 98.2731 80.759 101.487 78.6574C113.248 70.9697 118.346 59.0213 113.031 51.6048C111.094 48.9028 109.669 48.1942 105.808 48.0128ZM39.9278 12.9902C33.2391 15.1903 27.6324 19.7483 24.1102 25.8489C22.3358 28.9223 22.3025 29.0866 23.5125 28.7642C25.2124 28.3114 28.3367 28.7435 29.9044 29.6487L31.1655 30.3768L32.5663 27.2118C34.2393 23.4311 39.0077 16.984 42.2147 14.1668C43.4855 13.051 44.3605 12.0434 44.1605 11.9279C43.9601 11.8122 42.0552 12.2904 39.9278 12.9902ZM57.1858 20.6944C54.9376 20.3775 49.7235 22.5612 47.1913 24.8812C42.7435 28.9556 39.3282 36.2719 38.9649 42.5006C38.7481 46.2251 40.3937 51.2711 42.5193 53.399C51.0358 61.9246 65.9501 44.6427 63.9845 28.5263C63.5266 24.7743 60.376 21.1443 57.1858 20.6944ZM123.126 61.0467C123.05 61.1787 122.935 62.3301 122.869 63.6052C122.648 67.9757 121.009 72.6254 117.979 77.4786L115.14 82.0254L116.481 82.7989C118.105 83.7363 119.081 85.1756 119.913 87.8635L120.539 89.8887L122.257 86.1334C125.671 78.673 126.942 72.1091 125.94 67.1223C125.486 64.8639 123.454 60.4775 123.126 61.0467ZM25.4594 30.863C21.682 30.024 18.6727 32.0268 15.4956 37.4956C12.972 41.8391 11.6175 46.2006 11.1689 51.4293C10.5949 58.1131 12.299 62.539 16.3317 64.8401C22.7905 68.5254 29.8539 64.9408 33.1518 56.3041C37.0954 45.9761 33.0344 32.5458 25.4594 30.863ZM112.773 83.7704C104.775 81.4755 95.2238 88.3923 92.1131 98.7322C91.4971 100.779 90.9822 103.573 90.9681 104.941C90.9215 109.415 94.6736 113.276 99.2316 113.445C107.096 113.736 117.705 103.069 118.552 94.0207C119.044 88.7452 116.909 84.9577 112.773 83.7704ZM63.1107 59.9978C62.5226 59.807 60.4979 59.3559 58.6114 58.9952C51.423 57.6212 46.6987 59.1522 42.4886 64.2202C37.8022 69.8614 33.3357 71.345 22.9103 70.7225C15.8963 70.3043 10.9354 71.1753 7.05544 73.5077C3.10253 75.8829 0.41839 80.4033 0.235022 84.9934C-0.0318233 91.6576 3.27079 98.8306 9.63065 105.401C12.2434 108.1 13.9532 109.338 19.4575 112.519C26.7816 116.75 31.3802 118.487 40.546 120.483C45.3795 121.536 46.3204 121.921 50.0561 124.377C52.8958 126.245 55.4269 128.444 58.0919 131.36C66.315 140.355 74.4025 143.71 83.3354 141.831C88.5144 140.742 91.3062 138.699 94.0061 134.022C95.9708 130.619 96.1992 129.878 96.0454 127.412C95.946 125.819 95.1077 123.193 94.0809 121.26C93.0957 119.404 91.2976 116.032 90.0845 113.765C86.6643 107.373 85.267 101.286 85.6667 94.5217C85.8535 91.3616 85.7289 87.2962 85.3903 85.488C84.1783 79.0137 79.5449 71.2135 74.1594 66.5794C72.0075 64.728 65.2112 60.6795 63.1107 59.9978Z" fill="#184066"/>
</svg>
