<svg width="42" height="42" viewBox="0 0 42 42" fill="none" xmlns="http://www.w3.org/2000/svg">
<g id="facebook (2) 1" clip-path="url(#clip0_265_74)">
<path id="Vector" d="M21 42C32.598 42 42 32.598 42 21C42 9.40202 32.598 0 21 0C9.40202 0 0 9.40202 0 21C0 32.598 9.40202 42 21 42Z" fill="#95CDC3"/>
<path id="Vector_2" d="M21 0C20.0716 0 19.1575 0.0610313 18.2609 0.177762C28.5646 1.52004 36.5217 10.3304 36.5217 21C36.5217 31.6696 28.5645 40.48 18.2608 41.8222C19.1575 41.939 20.0716 42 21 42C32.598 42 42 32.5979 42 21C42 9.40209 32.598 0 21 0Z" fill="#7EB3BB"/>
<path id="Vector_3" d="M31.1805 11.8118L31.1012 11.6091C31.0989 11.6033 31.0944 11.5985 31.0887 11.5959L30.8917 11.5058C29.2699 10.7641 26.9822 10.5811 24.9582 10.5H22.6786C22.6528 10.5 22.645 10.535 22.6682 10.5462L27.3508 12.8067C27.3772 12.8194 27.3626 12.8589 27.3342 12.8515C25.2283 12.2977 23.1008 12.0174 21 12.0174C18.906 12.0174 16.7854 12.296 14.686 12.8462C14.6574 12.8537 14.6429 12.8137 14.6697 12.8012L19.5166 10.5465C19.5401 10.5355 19.5325 10.5001 19.5065 10.5001H17.0419C15.0179 10.5812 12.7302 10.7642 11.1084 11.506L10.9114 11.5961C10.9057 11.5987 10.9012 11.6034 10.8989 11.6093L10.8196 11.8119C9.15982 16.0466 8.68819 23.2356 9.19115 27.7393L9.21752 27.9754L9.40411 28.1212C11.9969 30.1456 15.4639 31.1865 17.6449 31.4627L17.9269 31.4984C18.0186 31.51 18.1062 31.4567 18.1386 31.3696L19.5581 27.5508C19.6023 27.4318 19.527 27.3018 19.4023 27.2821L18.9667 27.2132C17.4478 26.9729 15.2958 26.3359 13.4772 24.6752C13.4384 24.6397 13.4758 24.576 13.5249 24.5943C13.6727 24.6497 13.8357 24.7138 14.0035 24.7798C14.4147 24.9415 14.84 25.1088 15.1175 25.1752C17.0678 25.6421 19.0455 25.8789 20.9999 25.8789V25.8439H21.004L21.0042 25.8789C22.9546 25.8789 24.9323 25.6422 26.8824 25.1752C27.16 25.1087 27.5853 24.9415 27.9966 24.7797C28.1643 24.7137 28.3272 24.6496 28.475 24.5943C28.5241 24.576 28.5615 24.6398 28.5227 24.6752C26.7101 26.3286 24.5554 26.9639 23.0331 27.204L22.5977 27.2727C22.473 27.2923 22.3975 27.4222 22.4417 27.5412L23.8615 31.3694C23.8938 31.4566 23.9815 31.51 24.0731 31.4984L24.3554 31.4626C26.5363 31.1864 30.003 30.1456 32.5959 28.1211L32.7824 27.9754L32.8088 27.7392C33.3118 23.2356 32.8402 16.0466 31.1805 11.8118ZM16.3669 22.2086C14.6037 22.3669 13.1328 20.886 13.2898 19.1106C13.4102 17.7497 14.4985 16.6538 15.8501 16.5324C17.6132 16.3741 19.0842 17.8551 18.9272 19.6305C18.8067 20.9913 17.7184 22.0873 16.3669 22.2086ZM26.1501 22.2086C24.387 22.3669 22.916 20.886 23.073 19.1106C23.1935 17.7497 24.2817 16.6538 25.6333 16.5324C27.3964 16.3741 28.8674 17.8551 28.7104 19.6305C28.5899 20.9913 27.5016 22.0873 26.1501 22.2086Z" fill="white"/>
</g>
<defs>
<clipPath id="clip0_265_74">
<rect width="42" height="42" fill="white"/>
</clipPath>
</defs>
</svg>
