<svg width="42" height="42" viewBox="0 0 42 42" fill="none" xmlns="http://www.w3.org/2000/svg">
<g id="twitter (3) 1" clip-path="url(#clip0_265_78)">
<path id="Vector" d="M21 42C32.598 42 42 32.598 42 21C42 9.40202 32.598 0 21 0C9.40202 0 0 9.40202 0 21C0 32.598 9.40202 42 21 42Z" fill="#95CDC3"/>
<path id="Vector_2" d="M20.9999 0C20.0716 0 19.1574 0.0610313 18.2608 0.177762C28.5645 1.52004 36.5217 10.3304 36.5217 21C36.5217 31.6696 28.5645 40.48 18.2607 41.8222C19.1574 41.939 20.0716 42 20.9999 42C32.598 42 42 32.5979 42 21C42 9.40209 32.598 0 20.9999 0Z" fill="#7EB3BB"/>
<path id="Vector_3" d="M17.3706 31.5C15.6115 31.5 13.8875 31.1925 12.2467 30.5862L10.6208 29.9854C10.4429 29.9197 10.4675 29.6681 10.655 29.6361L12.3684 29.3438C13.9558 29.0729 15.457 28.4449 16.7436 27.5176C16.8793 27.4198 16.8247 27.214 16.6574 27.1901C15.1592 26.9766 13.8141 26.0963 13.0594 24.8046L12.6748 24.1463C12.6058 24.0283 12.6893 23.8812 12.8287 23.8747L13.6069 23.8385L13.6147 23.8381C13.8102 23.8287 13.8569 23.5702 13.6792 23.4903C12.2536 22.8491 11.2208 21.5615 10.9555 20.0196L10.8369 19.3305C10.8148 19.2023 10.9342 19.0937 11.0644 19.1232L11.7645 19.2827C12.1372 19.3674 12.5225 19.4105 12.9096 19.4105C12.9142 19.4105 12.9188 19.4105 12.9234 19.4105C11.4303 18.4813 10.5433 16.911 10.5433 15.1825C10.5433 14.7526 10.5988 14.3273 10.7085 13.9185L10.9178 13.1373C10.9542 13.0016 11.1282 12.9552 11.2308 13.0537L11.8216 13.6213C13.3821 15.1204 15.2981 16.2745 17.3631 16.9588C17.9098 17.1273 19.5678 17.5843 20.1419 17.5865L20.1561 17.5867C20.1561 17.5867 20.3237 17.5925 20.4313 17.5974C20.4306 17.568 20.4301 17.5386 20.4301 17.5092C20.4301 14.4714 22.9737 12 26.1003 12C27.5932 12 28.9949 12.5557 30.0604 13.5675C30.1025 13.6074 30.1611 13.6269 30.2193 13.6183C30.7672 13.5376 31.3123 13.4101 31.8366 13.2395L33.5847 12.6705C33.7678 12.6109 33.9127 12.827 33.7827 12.9656L32.5407 14.2893C32.3752 14.4657 32.1974 14.6298 32.0085 14.7808C31.8588 14.9004 31.9701 15.1356 32.1605 15.1008C32.3298 15.07 32.4981 15.0351 32.6646 14.9963L34.2682 14.6225C34.4506 14.58 34.5769 14.7953 34.4463 14.9261L33.2984 16.0763C32.8336 16.542 32.3183 16.9694 31.7666 17.3467L31.7675 17.373C31.7691 17.4182 31.7705 17.4635 31.7705 17.5092V17.5641C31.7381 25.2495 25.2783 31.5 17.3706 31.5Z" fill="#FCFCFC"/>
</g>
<defs>
<clipPath id="clip0_265_78">
<rect width="42" height="42" fill="white"/>
</clipPath>
</defs>
</svg>
